# xmcd
# Track frame offsets:
# 150
# 14350
# 28050
# 40883
# 54872
# 68762
# 85902
# 96086
# 109546
# 129046
# 137675
# 153549
# 163053
# 175611
#
# Disc length: 2526 seconds
# Revision: 0
# Processed by: cddbd v1.5.1PL0 Copyright (c) Steve Scherf et al.
# Submitted via: VisiTrax 2.9.9.209 - For more info visit www.synapsa.com
#
DISCID=a609dc0e
DTITLE=Troy Cassar - Daley - Borrowed And Blue
DYEAR=2004
DGENRE=
TTITLE0=Factory Man
TTITLE1=My Old Friend The Blues
TTITLE2=River Boy
TTITLE3=Yer So Bad
TTITLE4=Big City
TTITLE5=Dark End of The Street
TTITLE6=Why Baby Why
TTITLE7=I Got A Name
TTITLE8=Till l Gain Control
TTITLE9=Losin' My Blues Tonight
TTITLE10=I Still Miss Somedive
TTITLE11=My Bucket's Got A Hole In It
TTITLE12=I'm An Old Man Tryin' to live while I Can
TTITLE13=Still Can't Say Goodbye
EXTD=
EXTT0=
EXTT1=
EXTT2=
EXTT3=
EXTT4=
EXTT5=
EXTT6=
EXTT7=
EXTT8=
EXTT9=
EXTT10=
EXTT11=
EXTT12=
EXTT13=
PLAYORDER=
